<mxfile host="app.diagrams.net" modified="2023-04-23T07:51:01.435Z" agent="Mozilla/5.0 (Windows NT 10.0; Win64; x64) AppleWebKit/537.36 (KHTML, like Gecko) Chrome/112.0.0.0 Safari/537.36 Edg/112.0.1722.48" version="21.2.1" etag="zWEo1iiVwTg_lCr0QIm2" type="github">
  <diagram name="第 1 页" id="53o99yQ10oAC922sL916">
    <mxGraphModel>
      <root>
        <mxCell id="0" />
        <mxCell id="1" parent="0" />
      </root>
    </mxGraphModel>
  </diagram>
</mxfile>
